<?xml version="1.0" encoding="UTF-8"?>
<svg version="1.1" xmlns="http://www.w3.org/2000/svg" width="585" height="207">
<path d="M0 0 C193.05 0 386.1 0 585 0 C585 68.31 585 136.62 585 207 C391.95 207 198.9 207 0 207 C0 138.69 0 70.38 0 0 Z " fill="#FDFDFD" transform="translate(0,0)"/>
<path d="M0 0 C3.125 0.25 3.125 0.25 4.79650307 1.47663975 C6.50175498 3.75291596 6.50207403 5.04481101 6.50595093 7.87376404 C6.5144104 8.8229068 6.52286987 9.77204956 6.53158569 10.74995422 C6.525513 11.78951767 6.51944031 12.82908112 6.51318359 13.90014648 C6.51844055 14.99631287 6.52369751 16.09247925 6.52911377 17.22186279 C6.54234643 20.85508359 6.53356322 24.48786828 6.5234375 28.12109375 C6.52545743 30.64071232 6.52836819 33.16033033 6.53213501 35.6799469 C6.53656293 40.96516007 6.53039791 46.25021621 6.51611328 51.53540039 C6.49979477 57.64359037 6.5050686 63.75147981 6.5215925 69.85966247 C6.53685424 75.73671369 6.53522911 81.61367162 6.5264473 87.49073982 C6.52444339 89.99103907 6.52691122 92.49134596 6.53388596 94.99163628 C6.54149054 98.48478482 6.52990897 101.9773537 6.51318359 105.47045898 C6.51925629 106.5079982 6.52532898 107.54553741 6.53158569 108.61451721 C6.51889648 110.04246109 6.51889648 110.04246109 6.50595093 111.49925232 C6.50481985 112.32496955 6.50368877 113.15068678 6.50252342 114.00142574 C6.02942161 116.81927624 5.09466515 118.20133061 3.125 120.25 C0.125 120.6875 0.125 120.6875 -2.875 120.25 C-4.99277063 118.66747362 -5.77876033 117.78642947 -6.24973011 115.16129494 C-6.24956237 114.35200224 -6.24939463 113.54270954 -6.2492218 112.70889282 C-6.25623611 111.77802353 -6.26325043 110.84715424 -6.27047729 109.88807678 C-6.26283356 108.86878586 -6.25518982 107.84949493 -6.24731445 106.79931641 C-6.25096512 105.72426346 -6.25461578 104.64921051 -6.25837708 103.5415802 C-6.26650093 99.97808162 -6.25285506 96.4150352 -6.23828125 92.8515625 C-6.23776279 90.37918091 -6.23827994 87.90679891 -6.23979187 85.43441772 C-6.23970206 80.24755719 -6.22925578 75.06085179 -6.21118164 69.87402344 C-6.18851793 63.22359532 -6.18794518 56.57350067 -6.19469929 49.92302895 C-6.19804065 44.81525654 -6.19140558 39.70753598 -6.18157005 34.59977341 C-6.17771889 32.14775234 -6.17656949 29.69572551 -6.1781559 27.24370193 C-6.17852662 23.81551377 -6.16590306 20.38761706 -6.1496582 16.95947266 C-6.15213562 15.94423019 -6.15461304 14.92898773 -6.15716553 13.88298035 C-6.05612297 0.52661939 -6.05612297 0.52661939 0 0 Z " fill="#F5563F" transform="translate(106.875,52.75)"/>
<path d="M0 0 C3 0.4375 3 0.4375 4.66323853 1.92881775 C6.59002968 5.54480075 6.41804235 9.01588748 6.38818359 13.01391602 C6.39344055 13.87774902 6.39869751 14.74158203 6.40411377 15.6315918 C6.41731066 18.48504755 6.40857756 21.33794489 6.3984375 24.19140625 C6.40045814 26.17390551 6.40336949 28.15640404 6.40713501 30.13890076 C6.41155779 34.29246095 6.40512805 38.44582754 6.39111328 42.59936523 C6.37401033 47.92835912 6.38386997 53.2569001 6.40183067 58.58587742 C6.41266021 62.67876105 6.40922617 66.77153691 6.4014473 70.86442375 C6.39944357 72.82966096 6.40191059 74.79490789 6.40888596 76.76013374 C6.41648798 79.50384657 6.40491439 82.24682083 6.38818359 84.99047852 C6.39729263 86.2131971 6.39729263 86.2131971 6.40658569 87.46061707 C6.34477144 92.92050813 6.34477144 92.92050813 4.66323853 95.44200134 C2.03021118 97.017948 -0.01013107 96.81123362 -3 96.4375 C-4.66369057 95.14889526 -4.66369057 95.14889526 -6 93.4375 C-6.29628597 90.51522746 -6.40967346 87.80607519 -6.38818359 84.8828125 C-6.39344055 84.00937195 -6.39869751 83.1359314 -6.40411377 82.23602295 C-6.41733324 79.3446675 -6.4085688 76.45386119 -6.3984375 73.5625 C-6.40045768 71.55615127 -6.40336864 69.54980325 -6.40713501 67.54345703 C-6.411561 63.33684301 -6.40511841 59.13041997 -6.39111328 54.92382812 C-6.3740213 49.52642617 -6.38386101 44.12947171 -6.40183067 38.73208618 C-6.41266104 34.58858862 -6.40922559 30.44519751 -6.4014473 26.30169678 C-6.39944322 24.3113398 -6.4019118 22.32097321 -6.40888596 20.33062744 C-6.41648811 17.55088632 -6.40491363 14.7718742 -6.38818359 11.9921875 C-6.39425629 11.16612 -6.40032898 10.34005249 -6.40658569 9.48895264 C-6.34387611 3.87689275 -6.34387611 3.87689275 -4.66369057 1.73001099 C-3 0.4375 -3 0.4375 0 0 Z " fill="#F55841" transform="translate(161,64.5625)"/>
<path d="M0 0 C1.37091797 0.01450195 1.37091797 0.01450195 2.76953125 0.02929688 C9.45605395 0.14355395 9.45605395 0.14355395 10.625 1.3125 C10.71283542 3.53105264 10.73194609 5.75238496 10.72265625 7.97265625 C10.7212413 8.63712265 10.71982635 9.30158905 10.71836853 9.9861908 C10.71275518 12.11583899 10.70020054 14.24538339 10.6875 16.375 C10.68248671 17.81575369 10.67792351 19.25650903 10.67382812 20.69726562 C10.66278145 24.23571102 10.64550792 27.77409539 10.625 31.3125 C8.645 31.3125 6.665 31.3125 4.625 31.3125 C4.625 28.6725 4.625 26.0325 4.625 23.3125 C-1.975 23.3125 -8.575 23.3125 -15.375 23.3125 C-15.375 26.2825 -15.375 29.2525 -15.375 32.3125 C-17.355 32.3125 -19.335 32.3125 -21.375 32.3125 C-21.4921893 28.95863239 -21.56257584 25.60529851 -21.625 22.25 C-21.65851563 21.30705078 -21.69203125 20.36410156 -21.7265625 19.39257812 C-21.81407173 13.1137911 -21.3158886 9.30217347 -17.375 4.3125 C-11.72815833 -0.08976069 -6.99647038 -0.22781561 0 0 Z " fill="#231B1A" transform="translate(458.375,83.6875)"/>
<path d="M0 0 C0.88816406 -0.00128906 1.77632813 -0.00257812 2.69140625 -0.00390625 C3.61566406 -0.00003906 4.53992188 0.00382812 5.4921875 0.0078125 C6.42417969 0.00394531 7.35617187 0.00007813 8.31640625 -0.00390625 C9.20199219 -0.00261719 10.08757812 -0.00132813 11 0 C12.22033936 0.00169189 12.22033936 0.00169189 13.46533203 0.00341797 C15.3671875 0.1328125 15.3671875 0.1328125 16.3671875 1.1328125 C16.45502292 3.35136514 16.47413359 5.57269746 16.46484375 7.79296875 C16.4634288 8.45743515 16.46201385 9.12190155 16.46055603 9.8065033 C16.45494268 11.93615149 16.44238804 14.06569589 16.4296875 16.1953125 C16.42467421 17.63606619 16.42011101 19.07682153 16.41601562 20.51757812 C16.40496895 24.05602352 16.38769542 27.59440789 16.3671875 31.1328125 C14.3871875 31.1328125 12.4071875 31.1328125 10.3671875 31.1328125 C10.3671875 28.4928125 10.3671875 25.8528125 10.3671875 23.1328125 C3.7671875 23.1328125 -2.8328125 23.1328125 -9.6328125 23.1328125 C-9.6328125 25.7728125 -9.6328125 28.4128125 -9.6328125 31.1328125 C-11.6128125 31.1328125 -13.5928125 31.1328125 -15.6328125 31.1328125 C-15.74970876 27.75810746 -15.82029184 24.3839282 -15.8828125 21.0078125 C-15.91632813 20.05648437 -15.94984375 19.10515625 -15.984375 18.125 C-16.06821355 12.08862435 -15.63238351 8.73860315 -11.6328125 4.1328125 C-7.94504486 0.89204699 -4.85153937 0.00670764 0 0 Z " fill="#211818" transform="translate(297.6328125,83.8671875)"/>
<path d="M0 0 C1.66323853 1.1953125 1.66323853 1.1953125 3 3 C3.38095093 5.390625 3.38095093 5.390625 3.38818359 8.25 C3.39764008 9.32121094 3.40709656 10.39242187 3.4168396 11.49609375 C3.41076691 12.65238281 3.40469421 13.80867188 3.3984375 15 C3.40274277 16.78083984 3.40274277 16.78083984 3.40713501 18.59765625 C3.40917777 21.10937985 3.40363322 23.62111928 3.39111328 26.1328125 C3.3750636 29.98473572 3.39095588 33.83560955 3.41015625 37.6875 C3.40817386 40.12500232 3.40433027 42.56250399 3.3984375 45 C3.40754654 46.73443359 3.40754654 46.73443359 3.4168396 48.50390625 C3.40738312 49.57511719 3.39792664 50.64632812 3.38818359 51.75 C3.38579681 52.69359375 3.38341003 53.6371875 3.38095093 54.609375 C3 57 3 57 1.66323853 58.8046875 C-0.92211037 60.66268911 -2.91423521 60.3857206 -6 60 C-7.66323853 58.8046875 -7.66323853 58.8046875 -9 57 C-9.38095093 54.609375 -9.38095093 54.609375 -9.38818359 51.75 C-9.39764008 50.67878906 -9.40709656 49.60757813 -9.4168396 48.50390625 C-9.41076691 47.34761719 -9.40469421 46.19132812 -9.3984375 45 C-9.40130768 43.81277344 -9.40417786 42.62554687 -9.40713501 41.40234375 C-9.40917777 38.89062015 -9.40363322 36.37888072 -9.39111328 33.8671875 C-9.3750636 30.01526428 -9.39095588 26.16439045 -9.41015625 22.3125 C-9.40817386 19.87499768 -9.40433027 17.43749601 -9.3984375 15 C-9.40451019 13.84371094 -9.41058289 12.68742187 -9.4168396 11.49609375 C-9.40738312 10.42488281 -9.39792664 9.35367188 -9.38818359 8.25 C-9.38579681 7.30640625 -9.38341003 6.3628125 -9.38095093 5.390625 C-9 3 -9 3 -7.66323853 1.1953125 C-5.07788963 -0.66268911 -3.08576479 -0.3857206 0 0 Z " fill="#F4533A" transform="translate(182,83)"/>
<path d="M0 0 C2.21452075 3.32178113 2.25575617 4.37886354 2.2746582 8.25 C2.28419022 9.32121094 2.29372223 10.39242187 2.30354309 11.49609375 C2.30263168 12.65238281 2.30172028 13.80867188 2.30078125 15 C2.30506638 16.18722656 2.3093515 17.37445313 2.31376648 18.59765625 C2.319513 21.10936851 2.32000769 23.62109741 2.31567383 26.1328125 C2.31251259 29.98466224 2.33597468 33.83574521 2.36132812 37.6875 C2.36360087 40.12499903 2.36430473 42.56250013 2.36328125 45 C2.372491 46.15628906 2.38170074 47.31257813 2.39118958 48.50390625 C2.38496078 49.57511719 2.37873199 50.64632812 2.37231445 51.75 C2.37294388 52.69359375 2.3735733 53.6371875 2.3742218 54.609375 C2 57 2 57 0.66423035 58.8046875 C-1.92192082 60.66215802 -3.91373925 60.38578259 -7 60 C-8.66323853 58.8046875 -8.66323853 58.8046875 -10 57 C-10.38095093 54.609375 -10.38095093 54.609375 -10.38818359 51.75 C-10.39764008 50.67878906 -10.40709656 49.60757813 -10.4168396 48.50390625 C-10.41076691 47.34761719 -10.40469421 46.19132812 -10.3984375 45 C-10.40130768 43.81277344 -10.40417786 42.62554687 -10.40713501 41.40234375 C-10.40917777 38.89062015 -10.40363322 36.37888072 -10.39111328 33.8671875 C-10.3750636 30.01526428 -10.39095588 26.16439045 -10.41015625 22.3125 C-10.40817386 19.87499768 -10.40433027 17.43749601 -10.3984375 15 C-10.40451019 13.84371094 -10.41058289 12.68742187 -10.4168396 11.49609375 C-10.40738312 10.42488281 -10.39792664 9.35367188 -10.38818359 8.25 C-10.38579681 7.30640625 -10.38341003 6.3628125 -10.38095093 5.390625 C-10 3 -10 3 -8.69839478 1.1953125 C-5.86603017 -0.79807612 -3.33068638 -0.36334761 0 0 Z " fill="#F5563E" transform="translate(75,83)"/>
<path d="M0 0 C9.24 0 18.48 0 28 0 C28 2.31 28 4.62 28 7 C20.74 7 13.48 7 6 7 C6 8.98 6 10.96 6 13 C12.27 13 18.54 13 25 13 C25 15.31 25 17.62 25 20 C18.73 20 12.46 20 6 20 C6 21.65 6 23.3 6 25 C13.26 25 20.52 25 28 25 C28 27.64 28 30.28 28 33 C20.08 33 12.16 33 4 33 C4 32.34 4 31.68 4 31 C1.525 30.01 1.525 30.01 -1 29 C-1.02891546 24.54168018 -1.04676981 20.08338431 -1.0625 15.625 C-1.07087891 14.35398437 -1.07925781 13.08296875 -1.08789062 11.7734375 C-1.09111328 10.56171875 -1.09433594 9.35 -1.09765625 8.1015625 C-1.10289307 6.98088379 -1.10812988 5.86020508 -1.11352539 4.70556641 C-1 2 -1 2 0 0 Z " fill="#292120" transform="translate(250,83)"/>
<path d="M0 0 C2.33984375 0.12109375 2.33984375 0.12109375 5 1 C6.87890625 3.22265625 6.87890625 3.22265625 8.5625 6.0625 C9.15289062 7.0525 9.74328125 8.0425 10.3515625 9.0625 C16 19.12796209 16 19.12796209 16 22 C18.34878719 19.84074031 19.82574831 17.7526209 21.3125 14.9375 C21.74175781 14.15375 22.17101562 13.37 22.61328125 12.5625 C23.57973787 10.77659707 24.53460383 8.98439378 25.48046875 7.1875 C25.98191406 6.28 26.48335938 5.3725 27 4.4375 C27.680625 3.16712891 27.680625 3.16712891 28.375 1.87109375 C28.91125 1.25363281 29.4475 0.63617188 30 0 C31.65 0 33.3 0 35 0 C35 10.23 35 20.46 35 31 C33.35 31 31.7 31 30 31 C30 25.39 30 19.78 30 14 C29.34 14 28.68 14 28 14 C27.690625 15.175625 27.690625 15.175625 27.375 16.375 C26.16756616 19.55823467 24.84227583 22.34751607 23.1875 25.3125 C22.70667969 26.17488281 22.22585938 27.03726563 21.73046875 27.92578125 C20 30 20 30 15 31 C12.03 25.72 9.06 20.44 6 15 C5.67 20.28 5.34 25.56 5 31 C3.02 31 1.04 31 -1 31 C-1.02465622 26.74585377 -1.04283899 22.49174502 -1.05493164 18.23754883 C-1.05997101 16.78929927 -1.06680253 15.34105483 -1.07543945 13.89282227 C-1.08752247 11.81525412 -1.09323211 9.73775303 -1.09765625 7.66015625 C-1.10289307 6.40855713 -1.10812988 5.15695801 -1.11352539 3.86743164 C-1 1 -1 1 0 0 Z " fill="#201817" transform="translate(396,84)"/>
<path d="M0 0 C1.20205078 -0.020625 2.40410156 -0.04125 3.64257812 -0.0625 C4.79822266 -0.06765625 5.95386719 -0.0728125 7.14453125 -0.078125 C8.20647705 -0.0874707 9.26842285 -0.09681641 10.36254883 -0.10644531 C13.55827946 0.29678403 14.92048312 0.99233164 17.1875 3.25 C18.02270815 7.29355944 17.83613221 11.18230649 17.1875 15.25 C14.75160708 18.5417472 12.56597595 19.9976827 9.1875 22.25 C9.765 22.73210937 10.3425 23.21421875 10.9375 23.7109375 C11.68 24.34257813 12.4225 24.97421875 13.1875 25.625 C13.93 26.25148438 14.6725 26.87796875 15.4375 27.5234375 C16.015 28.09320313 16.5925 28.66296875 17.1875 29.25 C17.1875 29.91 17.1875 30.57 17.1875 31.25 C14.02190339 31.77759944 12.25681541 32.00126561 9.1875 31.25 C6.40328742 29.12709056 4.01693156 26.82997862 1.58203125 24.31640625 C-0.98523984 22.10093087 -2.48519714 21.57504735 -5.8125 21.25 C-5.8125 19.27 -5.8125 17.29 -5.8125 15.25 C-4.76449219 15.18941406 -3.71648437 15.12882812 -2.63671875 15.06640625 C-1.25779952 14.98198262 0.12110605 14.89733553 1.5 14.8125 C2.19029297 14.77318359 2.88058594 14.73386719 3.59179688 14.69335938 C6.65911535 14.50072585 9.25718152 14.22677283 12.1875 13.25 C12.1875 10.61 12.1875 7.97 12.1875 5.25 C5.5875 5.25 -1.0125 5.25 -7.8125 5.25 C-7.8125 13.83 -7.8125 22.41 -7.8125 31.25 C-9.7925 31.25 -11.7725 31.25 -13.8125 31.25 C-13.83715622 26.99585377 -13.85533899 22.74174502 -13.86743164 18.48754883 C-13.87247101 17.03929927 -13.87930253 15.59105483 -13.88793945 14.14282227 C-13.90002247 12.06525412 -13.90573211 9.98775303 -13.91015625 7.91015625 C-13.91539307 6.65855713 -13.92062988 5.40695801 -13.92602539 4.11743164 C-13.66598113 -2.45078315 -5.11278425 0.02172187 0 0 Z " fill="#221919" transform="translate(333.8125,83.75)"/>
<path d="M0 0 C2.04095254 3.06142882 2.25288947 3.69741496 2.2746582 7.1484375 C2.28419022 7.97939941 2.29372223 8.81036133 2.30354309 9.66650391 C2.30263168 10.56030762 2.30172028 11.45411133 2.30078125 12.375 C2.30506638 13.29587402 2.3093515 14.21674805 2.31376648 15.16552734 C2.31950889 17.11229632 2.3200107 19.05908676 2.31567383 21.00585938 C2.31251203 23.98865207 2.33598035 26.97045483 2.36132812 29.953125 C2.36360089 31.84374875 2.36430472 33.73437516 2.36328125 35.625 C2.372491 36.51880371 2.38170074 37.41260742 2.39118958 38.33349609 C2.38496078 39.16445801 2.37873199 39.99541992 2.37231445 40.8515625 C2.37294388 41.58197754 2.3735733 42.31239258 2.3742218 43.06494141 C1.88793699 45.57946517 1.01800054 46.4623771 -1 48 C-4 48.4375 -4 48.4375 -7 48 C-9.03402903 46.22731831 -9.89164451 44.75360657 -10.27703857 42.07321167 C-10.39829676 39.62570748 -10.41560583 37.19656703 -10.3984375 34.74609375 C-10.40130768 33.84883072 -10.40417786 32.95156769 -10.40713501 32.02711487 C-10.4091737 30.1333859 -10.40365746 28.23963578 -10.39111328 26.34594727 C-10.37503793 23.44434693 -10.39097809 20.54413554 -10.41015625 17.64257812 C-10.40817415 15.80208026 -10.40433117 13.96158325 -10.3984375 12.12109375 C-10.40451019 11.25230087 -10.41058289 10.383508 -10.4168396 9.48838806 C-10.40265488 8.27681786 -10.40265488 8.27681786 -10.38818359 7.04077148 C-10.38579681 6.33113754 -10.38341003 5.6215036 -10.38095093 4.8903656 C-9.25690326 -0.68741594 -4.8654686 -0.53077839 0 0 Z " fill="#F55841" transform="translate(129,89)"/>
<path d="M0 0 C5 0 5 0 7.17236328 1.60473633 C7.88118652 2.33974365 8.59000977 3.07475098 9.3203125 3.83203125 C10.10277344 4.63060547 10.88523437 5.42917969 11.69140625 6.25195312 C12.49449219 7.09693359 13.29757812 7.94191406 14.125 8.8125 C14.93582031 9.64587891 15.74664062 10.47925781 16.58203125 11.33789062 C18.08925453 12.88871127 19.59128957 14.44460307 21.08642578 16.00708008 C22.70369094 17.69140459 24.34886468 19.34886468 26 21 C26 14.07 26 7.14 26 0 C27.65 0 29.3 0 31 0 C31 10.23 31 20.46 31 31 C26 31 26 31 24.40234375 29.671875 C23.91894531 29.03765625 23.43554688 28.4034375 22.9375 27.75 C19.69691299 23.74607471 16.2209712 20.1161027 12.5625 16.5 C10.726875 14.685 8.89125 12.87 7 11 C6.67 17.6 6.34 24.2 6 31 C4.02 31 2.04 31 0 31 C0 20.77 0 10.54 0 0 Z " fill="#221A19" transform="translate(357,84)"/>
<path d="M0 0 C8.91 0 17.82 0 27 0 C27 1.65 27 3.3 27 5 C19.41 5 11.82 5 4 5 C4.33 11.27 4.66 17.54 5 24 C12.26 24.33 19.52 24.66 27 25 C27 26.98 27 28.96 27 31 C23.27124612 31.14560195 19.54322566 31.23417043 15.8125 31.3125 C14.75740234 31.35439453 13.70230469 31.39628906 12.61523438 31.43945312 C7.99381402 31.51234619 4.88733721 31.4851783 0.78515625 29.2421875 C-1.98669173 24.20797782 -1.56783669 19.45463543 -1.375 13.8125 C-1.36082031 12.70712891 -1.34664063 11.60175781 -1.33203125 10.46289062 C-1.18348214 2.36696429 -1.18348214 2.36696429 0 0 Z " fill="#130A0A" transform="translate(509,84)"/>
<path d="M0 0 C9.9 0 19.8 0 30 0 C30 1.65 30 3.3 30 5 C26.04 5 22.08 5 18 5 C18 13.91 18 22.82 18 32 C16.02 32 14.04 32 12 32 C12 23.42 12 14.84 12 6 C8.04 6 4.08 6 0 6 C0 4.02 0 2.04 0 0 Z " fill="#110808" transform="translate(473,84)"/>
<path d="M0 0 C0.33 0.66 0.66 1.32 1 2 C0.01 2.33 -0.98 2.66 -2 3 C-2.73323796 5.01508358 -2.73323796 5.01508358 -3 7 C-1.68 6.67 -0.36 6.34 1 6 C1 6.66 1 7.32 1 8 C-0.32 8.33 -1.64 8.66 -3 9 C-3 25.5 -3 42 -3 59 C-2.01 59.33 -1.02 59.66 0 60 C-5.48274156 60.3655161 -5.48274156 60.3655161 -7.67495728 58.81640625 C-9.46242109 56.36610002 -9.38054604 54.76944398 -9.38818359 51.75 C-9.39764008 50.67878906 -9.40709656 49.60757813 -9.4168396 48.50390625 C-9.41076691 47.34761719 -9.40469421 46.19132812 -9.3984375 45 C-9.40130768 43.81277344 -9.40417786 42.62554687 -9.40713501 41.40234375 C-9.40917777 38.89062015 -9.40363322 36.37888072 -9.39111328 33.8671875 C-9.3750636 30.01526428 -9.39095588 26.16439045 -9.41015625 22.3125 C-9.40817386 19.87499768 -9.40433027 17.43749601 -9.3984375 15 C-9.40451019 13.84371094 -9.41058289 12.68742187 -9.4168396 11.49609375 C-9.40738312 10.42488281 -9.39792664 9.35367188 -9.38818359 8.25 C-9.38579681 7.30640625 -9.38341003 6.3628125 -9.38095093 5.390625 C-9 3 -9 3 -7.67495728 1.18359375 C-5.17183984 -0.58521206 -2.97459081 -0.19830605 0 0 Z " fill="#F65C45" transform="translate(182,83)"/>
<path d="M0 0 C1.98 0 3.96 0 6 0 C6 8.91 6 17.82 6 27 C13.59 27 21.18 27 29 27 C29 28.65 29 30.3 29 32 C24.54168018 32.02891546 20.08338431 32.04676981 15.625 32.0625 C14.35398438 32.07087891 13.08296875 32.07925781 11.7734375 32.08789062 C10.56171875 32.09111328 9.35 32.09433594 8.1015625 32.09765625 C6.42054443 32.10551147 6.42054443 32.10551147 4.70556641 32.11352539 C2 32 2 32 0 31 C0 20.77 0 10.54 0 0 Z " fill="#251C1C" transform="translate(216,83)"/>
<path d="M0 0 C9.24 0 18.48 0 28 0 C28 2.31 28 4.62 28 7 C20.74 7 13.48 7 6 7 C6 8.98 6 10.96 6 13 C12.27 13 18.54 13 25 13 C25 15.31 25 17.62 25 20 C18.73 20 12.46 20 6 20 C6 21.65 6 23.3 6 25 C13.26 25 20.52 25 28 25 C28 27.64 28 30.28 28 33 C20.08 33 12.16 33 4 33 C4 32.67 4 32.34 4 32 C11.59 32 19.18 32 27 32 C27 30.35 27 28.7 27 27 C26.36908447 27.00523682 25.73816895 27.01047363 25.08813477 27.01586914 C22.24626653 27.03657826 19.40441412 27.04964066 16.5625 27.0625 C15.07266602 27.07506836 15.07266602 27.07506836 13.55273438 27.08789062 C12.60849609 27.09111328 11.66425781 27.09433594 10.69140625 27.09765625 C9.37958374 27.10551147 9.37958374 27.10551147 8.04125977 27.11352539 C6 27 6 27 5 26 C4.91330568 24.5112814 4.89296506 23.018555 4.90234375 21.52734375 C4.90484131 20.71773193 4.90733887 19.90812012 4.90991211 19.07397461 C4.91901611 18.03893799 4.92812012 17.00390137 4.9375 15.9375 C4.9684375 11.0184375 4.9684375 11.0184375 5 6 C12.26 6 19.52 6 27 6 C27 4.35 27 2.7 27 1 C18.09 1 9.18 1 0 1 C0 0.67 0 0.34 0 0 Z " fill="#ACA8A7" transform="translate(250,83)"/>
<path d="M0 0 C1.6640625 0.99609375 1.6640625 0.99609375 3 3 C3.29870684 5.90214193 3.41877271 8.5412059 3.375 11.4375 C3.38660156 12.20126953 3.39820313 12.96503906 3.41015625 13.75195312 C3.39222415 17.18594983 3.29627383 19.44297054 1.6640625 22.51171875 C0 24 0 24 -3 24.375 C-6 24 -6 24 -9 22 C-9.38818359 20.07641602 -9.38818359 20.07641602 -9.3984375 17.75390625 C-9.40230469 16.91666016 -9.40617187 16.07941406 -9.41015625 15.21679688 C-9.39855469 14.34087891 -9.38695312 13.46496094 -9.375 12.5625 C-9.38660156 11.69044922 -9.39820313 10.81839844 -9.41015625 9.91992188 C-9.40628906 9.08138672 -9.40242188 8.24285156 -9.3984375 7.37890625 C-9.39505371 6.6113501 -9.39166992 5.84379395 -9.38818359 5.05297852 C-8.39738416 -0.1870419 -4.729816 -0.591227 0 0 Z " fill="#F55C45" transform="translate(56,101)"/>
<path d="M0 0 C3.32783781 0.48530968 4.00298302 0.85355397 6 3.4375 C6.38818359 5.3828125 6.38818359 5.3828125 6.3984375 7.5625 C6.40230469 8.35140625 6.40617188 9.1403125 6.41015625 9.953125 C6.39855469 10.77296875 6.38695312 11.5928125 6.375 12.4375 C6.38660156 13.25734375 6.39820313 14.0771875 6.41015625 14.921875 C6.40628906 15.71078125 6.40242187 16.4996875 6.3984375 17.3125 C6.39336182 18.39144531 6.39336182 18.39144531 6.38818359 19.4921875 C5.88641099 22.00673097 5.01946789 22.89546872 3 24.4375 C0 24.875 0 24.875 -3 24.4375 C-5.72595013 21.93551291 -6.00283466 20.41082086 -6.3984375 16.6875 C-6.4063666 15.27083398 -6.39809511 13.85399995 -6.375 12.4375 C-6.38660156 11.7259375 -6.39820313 11.014375 -6.41015625 10.28125 C-6.39232541 7.09547269 -6.18965927 4.78853602 -4.6640625 1.96484375 C-3 0.4375 -3 0.4375 0 0 Z " fill="#F4543C" transform="translate(197,100.5625)"/>
<path d="M0 0 C3.32783781 0.48530968 4.00298302 0.85355397 6 3.4375 C6.38818359 5.3828125 6.38818359 5.3828125 6.3984375 7.5625 C6.40230469 8.35140625 6.40617187 9.1403125 6.41015625 9.953125 C6.39855469 10.77296875 6.38695313 11.5928125 6.375 12.4375 C6.38660156 13.25734375 6.39820312 14.0771875 6.41015625 14.921875 C6.40628906 15.71078125 6.40242188 16.4996875 6.3984375 17.3125 C6.39336182 18.39144531 6.39336182 18.39144531 6.38818359 19.4921875 C5.88641099 22.00673097 5.01946789 22.89546872 3 24.4375 C0 24.875 0 24.875 -3 24.4375 C-5.72595013 21.93551291 -6.00283466 20.41082086 -6.3984375 16.6875 C-6.4063666 15.27083398 -6.39809511 13.85399995 -6.375 12.4375 C-6.38660156 11.7259375 -6.39820312 11.014375 -6.41015625 10.28125 C-6.39232541 7.09547269 -6.18965927 4.78853602 -4.6640625 1.96484375 C-3 0.4375 -3 0.4375 0 0 Z " fill="#F55942" transform="translate(89,100.5625)"/>
<path d="M0 0 C3.32783781 0.48530968 4.00298302 0.85355397 6 3.4375 C6.38818359 5.3828125 6.38818359 5.3828125 6.3984375 7.5625 C6.40230469 8.35140625 6.40617188 9.1403125 6.41015625 9.953125 C6.39855469 10.77296875 6.38695312 11.5928125 6.375 12.4375 C6.38660156 13.25734375 6.39820313 14.0771875 6.41015625 14.921875 C6.40628906 15.71078125 6.40242187 16.4996875 6.3984375 17.3125 C6.39336182 18.39144531 6.39336182 18.39144531 6.38818359 19.4921875 C5.88641099 22.00673097 5.01946789 22.89546872 3 24.4375 C0 24.875 0 24.875 -3 24.4375 C-5.72595013 21.93551291 -6.00283466 20.41082086 -6.3984375 16.6875 C-6.4063666 15.27083398 -6.39809511 13.85399995 -6.375 12.4375 C-6.38660156 11.7259375 -6.39820313 11.014375 -6.41015625 10.28125 C-6.39232541 7.09547269 -6.18965927 4.78853602 -4.6640625 1.96484375 C-3 0.4375 -3 0.4375 0 0 Z " fill="#F45740" transform="translate(143,100.5625)"/>
<path d="M0 0 C1.65 0 3.3 0 5 0 C5 10.23 5 20.46 5 31 C3.35 31 1.7 31 0 31 C0 25.39 0 19.78 0 14 C-0.66 14 -1.32 14 -2 14 C-2.226875 14.94875 -2.45375 15.8975 -2.6875 16.875 C-4 20 -4 20 -6.625 21.375 C-7.800625 21.684375 -7.800625 21.684375 -9 22 C-9.9950416 19.44706499 -10.26865978 17.68379724 -9.25488281 15.10351562 C-8.10833019 12.9417969 -6.8905755 10.84422612 -5.625 8.75 C-5.19960938 8.0178125 -4.77421875 7.285625 -4.3359375 6.53125 C-1.23897879 1.23897879 -1.23897879 1.23897879 0 0 Z " fill="#1B1211" transform="translate(426,84)"/>
<path d="M0 0 C0.74507813 0.02255859 1.49015625 0.04511719 2.2578125 0.06835938 C4.089409 0.12706439 5.91996653 0.21674243 7.75 0.3125 C7.75 4.2725 7.75 8.2325 7.75 12.3125 C1.15 12.3125 -5.45 12.3125 -12.25 12.3125 C-12.25 5.3125 -12.25 5.3125 -10.765625 2.39453125 C-7.29830838 -0.47515782 -4.28216009 -0.24588375 0 0 Z " fill="#EDECEC" transform="translate(300.25,89.6875)"/>
<path d="M0 0 C1.25425781 0.02707031 2.50851562 0.05414063 3.80078125 0.08203125 C4.75339844 0.11683594 5.70601563 0.15164062 6.6875 0.1875 C6.6875 4.1475 6.6875 8.1075 6.6875 12.1875 C0.0875 12.1875 -6.5125 12.1875 -13.3125 12.1875 C-12.3125 3.1875 -12.3125 3.1875 -10.20703125 1.13671875 C-6.65637048 -0.02766798 -3.73180976 -0.10463018 0 0 Z " fill="#EEEDED" transform="translate(456.3125,89.8125)"/>
<path d="M0 0 C1.65 0 3.3 0 5 0 C5 10.23 5 20.46 5 31 C0 31 0 31 -1.9140625 29.42578125 C-8.48966137 21.30386575 -8.48966137 21.30386575 -10 18 C-9.505 16.515 -9.505 16.515 -9 15 C-4.30535551 15.52162717 -3.87485597 17.12514403 0 21 C0 14.07 0 7.14 0 0 Z " fill="#180F0F" transform="translate(383,84)"/>
<path d="M0 0 C6.6 0 13.2 0 20 0 C20 2.64 20 5.28 20 8 C16.31602884 10.45598077 13.55276192 10.2271532 9.3125 10.125 C6.899375 10.08375 4.48625 10.0425 2 10 C1.67 15.28 1.34 20.56 1 26 C0.67 26 0.34 26 0 26 C0 17.42 0 8.84 0 0 Z " fill="#E9E8E8" transform="translate(326,89)"/>
<path d="M0 0 C0.05394705 2.60444348 0.09364469 5.20776998 0.125 7.8125 C0.14175781 8.55048828 0.15851563 9.28847656 0.17578125 10.04882812 C0.21074628 13.91246426 0.19397555 15.70903668 -2 19 C-3.9453125 19.29296875 -3.9453125 19.29296875 -6.125 19.1875 C-7.40375 19.125625 -8.6825 19.06375 -10 19 C-10.33 18.01 -10.66 17.02 -11 16 C-8.36 16 -5.72 16 -3 16 C-2.67 15.01 -2.34 14.02 -2 13 C-3.0725 13.2475 -4.145 13.495 -5.25 13.75 C-9 14 -9 14 -11.4375 12.5 C-13.5664946 9.09360864 -13.57349318 6.9427656 -13 3 C-9.85876736 -1.2338353 -4.77474809 -0.27546624 0 0 Z " fill="#585353" transform="translate(405,125)"/>
<path d="M0 0 C8.58 0 17.16 0 26 0 C26 1.32 26 2.64 26 4 C18.74 4 11.48 4 4 4 C4 9.61 4 15.22 4 21 C2.68 21.33 1.36 21.66 0 22 C0 14.74 0 7.48 0 0 Z " fill="#0D0303" transform="translate(250,84)"/>
<path d="M0 0 C0 4.62 0 9.24 0 14 C-7.51953125 14.390625 -7.51953125 14.390625 -10 14 C-12.61086811 11.39480769 -12.97829854 10.17671192 -13.4375 6.4375 C-13 3 -13 3 -11.5625 1.0625 C-7.654088 -0.55806107 -4.21186848 -0.18581773 0 0 Z " fill="#3C3737" transform="translate(316,125)"/>
<path d="M0 0 C5.49680847 -0.3664539 5.49680847 -0.3664539 7.67667103 1.22105122 C9.38013841 3.51101939 9.37021649 4.81164832 9.36076355 7.65068054 C9.36488754 8.60560394 9.36901154 9.56052734 9.3732605 10.54438782 C9.36247467 11.59023544 9.35168884 12.63608307 9.34057617 13.71362305 C9.34101425 14.8162146 9.34145233 15.91880615 9.34190369 17.05480957 C9.33980998 20.70729139 9.31645089 24.3593169 9.29296875 28.01171875 C9.28737488 30.54091643 9.2831038 33.07011736 9.28010559 35.59931946 C9.26981291 41.5810682 9.24615738 47.56262042 9.21605712 53.54429036 C9.18253173 60.35436434 9.16603181 67.16444613 9.15097082 73.97458208 C9.1196082 87.98314575 9.06683611 101.99156388 9 116 C8.67 116 8.34 116 8 116 C7.99503478 115.14466895 7.99503478 115.14466895 7.98996925 114.27205849 C7.90881827 100.4098894 7.81662561 86.54783183 7.71247292 72.68581581 C7.6623091 65.98229896 7.61586675 59.27879456 7.578125 52.57519531 C7.54135833 46.11069989 7.49502219 39.64633854 7.44193649 33.18195724 C7.42334659 30.71073117 7.4082558 28.23947632 7.39665604 25.76820755 C7.37987208 22.31749878 7.3508563 18.8671002 7.31884766 15.41650391 C7.31668747 14.38576248 7.31452728 13.35502106 7.31230164 12.29304504 C7.30113815 11.35632462 7.28997467 10.41960419 7.2784729 9.45449829 C7.27294214 8.63778971 7.26741138 7.82108112 7.26171303 6.97962379 C7.17354715 4.76799265 7.17354715 4.76799265 5 3 C3.68 4.32 2.36 5.64 1 7 C0.67 6.01 0.34 5.02 0 4 C-0.66 4 -1.32 4 -2 4 C-1.34 2.68 -0.68 1.36 0 0 Z " fill="#F46C55" transform="translate(104,53)"/>
<path d="M0 0 C1.9375 1.1875 1.9375 1.1875 3 3 C3.54068562 6.63031776 3.46379841 8.32214079 1.375 11.375 C-1.67785921 13.46379841 -3.36968224 13.54068562 -7 13 C-8.875 12 -8.875 12 -10 10 C-10.54135705 6.39095302 -10.62822841 3.2195022 -8.9375 -0.0625 C-5.75738793 -1.60126391 -3.33749179 -0.83437295 0 0 Z " fill="#524C4C" transform="translate(385,126)"/>
<path d="M0 0 C7.59 0.33 15.18 0.66 23 1 C23 2.98 23 4.96 23 7 C19.25026094 7.11622939 15.50098536 7.1872595 11.75 7.25 C10.68652344 7.28351563 9.62304688 7.31703125 8.52734375 7.3515625 C7.50253906 7.36445312 6.47773437 7.37734375 5.421875 7.390625 C4.47924805 7.41157227 3.53662109 7.43251953 2.56542969 7.45410156 C-0.71907875 6.87271731 -1.89169466 5.50740841 -4 3 C-3.01 2.67 -2.02 2.34 -1 2 C-0.67 1.34 -0.34 0.68 0 0 Z " fill="#282020" transform="translate(513,108)"/>
<path d="M0 0 C2 3 2 3 2 7 C-1.63 7 -5.26 7 -9 7 C-8.01 8.485 -8.01 8.485 -7 10 C-3.89505874 10.31845551 -1.98273923 9.99424641 1 9 C0 12 0 12 -2 13 C-4.875 13.375 -4.875 13.375 -8 13 C-10.4375 10.875 -10.4375 10.875 -12 8 C-12 4.49267067 -11.6345092 2.7565302 -9.375 0.0625 C-5.92482276 -1.48100034 -3.60000284 -0.93333407 0 0 Z " fill="#5A5455" transform="translate(422,126)"/>
<path d="M0 0 C3.375 0.875 3.375 0.875 5.375 2.875 C5.375 4.525 5.375 6.175 5.375 7.875 C2.075 7.875 -1.225 7.875 -4.625 7.875 C-4.295 8.865 -3.965 9.855 -3.625 10.875 C-0.58113276 10.95726668 1.44675348 10.85108217 4.375 9.875 C4.375 10.865 4.375 11.855 4.375 12.875 C1.53416359 14.29541821 -0.47977278 14.18952272 -3.625 13.875 C-6 12.25 -6 12.25 -7.625 9.875 C-8.23475382 6.21647708 -8.07043026 4.56987121 -6.0625 1.4375 C-3.625 -0.125 -3.625 -0.125 0 0 Z " fill="#373131" transform="translate(464.625,125.125)"/>
<path d="M0 0 C1.875 0.32421875 1.875 0.32421875 3.875 1.57421875 C4.875 3.32421875 4.875 3.32421875 4.875 7.32421875 C1.245 7.32421875 -2.385 7.32421875 -6.125 7.32421875 C-5.795 7.98421875 -5.465 8.64421875 -5.125 9.32421875 C-3.22966658 9.78944938 -3.22966658 9.78944938 -1.0625 9.94921875 C0.236875 10.07296875 1.53625 10.19671875 2.875 10.32421875 C1.885 11.80921875 1.885 11.80921875 0.875 13.32421875 C-2.43119324 13.75546135 -4.47671911 13.63129917 -7.5 12.19921875 C-9.125 10.32421875 -9.125 10.32421875 -9.5625 7.38671875 C-8.64895636 0.99191325 -6.12032644 -0.3262674 0 0 Z " fill="#4C4646" transform="translate(294.125,125.67578125)"/>
<path d="M0 0 C1.98 0.495 1.98 0.495 4 1 C3.67 10.24 3.34 19.48 3 29 C1.68 29 0.36 29 -1 29 C-1.02927632 25.47918442 -1.04689119 21.95840061 -1.0625 18.4375 C-1.07087891 17.44685547 -1.07925781 16.45621094 -1.08789062 15.43554688 C-1.10536914 10.17451301 -0.92308398 5.18235335 0 0 Z " fill="#0E0404" transform="translate(322,85)"/>
<path d="M0 0 C0.99 0 1.98 0 3 0 C3.33 1.65 3.66 3.3 4 5 C4.763125 4.938125 5.52625 4.87625 6.3125 4.8125 C9 5 9 5 10.65625 6.15625 C12.53015399 8.72742059 12.29842721 10.5445625 12.1875 13.6875 C12.16042969 14.68136719 12.13335937 15.67523438 12.10546875 16.69921875 C12.07066406 17.45847656 12.03585937 18.21773437 12 19 C11.34 19 10.68 19 10 19 C9.67 15.7 9.34 12.4 9 9 C7.35 8.67 5.7 8.34 4 8 C3.67 11.63 3.34 15.26 3 19 C2.01 19 1.02 19 0 19 C0 12.73 0 6.46 0 0 Z " fill="#5A5656" transform="translate(440,120)"/>
<path d="M0 0 C3.32559566 0.4849827 4.01359494 0.84471482 6 3.4375 C6.34057617 5.43041992 6.34057617 5.43041992 6.29296875 7.66796875 C6.28330078 8.47041016 6.27363281 9.27285156 6.26367188 10.09960938 C6.23853516 10.93298828 6.21339844 11.76636719 6.1875 12.625 C6.17396484 13.46998047 6.16042969 14.31496094 6.14648438 15.18554688 C6.11115799 17.26980384 6.05735139 19.35373277 6 21.4375 C5.67 21.4375 5.34 21.4375 5 21.4375 C4.67 16.8175 4.34 12.1975 4 7.4375 C3.01 7.7675 2.02 8.0975 1 8.4375 C0.67 7.7775 0.34 7.1175 0 6.4375 C-2.0708515 7.56143047 -2.0708515 7.56143047 -4 9.4375 C-4.69749589 12.16239473 -4.69749589 12.16239473 -4.75 15.125 C-4.80671875 16.11886719 -4.8634375 17.11273438 -4.921875 18.13671875 C-4.94765625 18.89597656 -4.9734375 19.65523437 -5 20.4375 C-5.33 20.4375 -5.66 20.4375 -6 20.4375 C-6.08112454 17.85353321 -6.14054748 15.27212432 -6.1875 12.6875 C-6.21263672 11.95789063 -6.23777344 11.22828125 -6.26367188 10.4765625 C-6.30813932 7.21561645 -6.22285932 4.85626516 -4.67578125 1.94921875 C-3 0.4375 -3 0.4375 0 0 Z " fill="#F6614B" transform="translate(197,100.5625)"/>
<path d="M0 0 C5.94 0 11.88 0 18 0 C18 1.65 18 3.3 18 5 C12.06 5 6.12 5 0 5 C0 3.35 0 1.7 0 0 Z " fill="#191010" transform="translate(257,97)"/>
<path d="M0 0 C5.61 0 11.22 0 17 0 C17 1.65 17 3.3 17 5 C11.39 5 5.78 5 0 5 C0 3.35 0 1.7 0 0 Z " fill="#130909" transform="translate(516,97)"/>
<path d="M0 0 C2 2 2 2 2.1953125 4.6015625 C2.17210937 5.59929687 2.14890625 6.59703125 2.125 7.625 C2.10695313 8.62789062 2.08890625 9.63078125 2.0703125 10.6640625 C2.03550781 11.82035156 2.03550781 11.82035156 2 13 C1.01 13 0.02 13 -1 13 C-1.33 9.37 -1.66 5.74 -2 2 C-3.32 1.67 -4.64 1.34 -6 1 C-6 1.66 -6 2.32 -6 3 C-6.66 3 -7.32 3 -8 3 C-8 6.3 -8 9.6 -8 13 C-8.66 13 -9.32 13 -10 13 C-10 8.71 -10 4.42 -10 0 C-5.96752567 -1.00811858 -3.96363402 -0.94782553 0 0 Z " fill="#635E5E" transform="translate(344,126)"/>
<path d="M0 0 C4.62 0 9.24 0 14 0 C14 8.25 14 16.5 14 25 C15.32 25 16.64 25 18 25 C18 25.66 18 26.32 18 27 C16.02 27 14.04 27 12 27 C12 18.42 12 9.84 12 1 C8.04 1 4.08 1 0 1 C0 0.67 0 0.34 0 0 Z " fill="#605C5A" transform="translate(473,89)"/>
<path d="M0 0 C2.5625 0.1875 2.5625 0.1875 4.5625 2.1875 C4.8125 5.1875 4.8125 5.1875 4.5625 8.1875 C2.5625 10.1875 2.5625 10.1875 0 10.375 C-2.4375 10.1875 -2.4375 10.1875 -3.4375 9.1875 C-3.5703125 7.375 -3.5703125 7.375 -3.5625 5.1875 C-3.56507813 4.465625 -3.56765625 3.74375 -3.5703125 3 C-3.36228014 0.16097012 -2.84416607 0.21878201 0 0 Z " fill="#E9E7E6" transform="translate(398.4375,126.8125)"/>
<path d="M0 0 C2.5625 0.1875 2.5625 0.1875 4.5625 2.1875 C4.8125 5.1875 4.8125 5.1875 4.5625 8.1875 C2.5625 10.1875 2.5625 10.1875 0 10.375 C-2.4375 10.1875 -2.4375 10.1875 -3.4375 9.1875 C-3.5703125 7.375 -3.5703125 7.375 -3.5625 5.1875 C-3.56507813 4.465625 -3.56765625 3.74375 -3.5703125 3 C-3.36228014 0.16097012 -2.84416607 0.21878201 0 0 Z " fill="#E8E7E6" transform="translate(309.4375,126.8125)"/>
<path d="M0 0 C4.55555556 0.55555556 4.55555556 0.55555556 6 2 C6.1875 4.9375 6.1875 4.9375 6 8 C4 10 4 10 1.375 10.125 C0.59125 10.08375 -0.1925 10.0425 -1 10 C-2.38125018 7.23749964 -2.19079306 5.05268901 -2 2 C-1.34 1.34 -0.68 0.68 0 0 Z " fill="#EBEAE9" transform="translate(379,127)"/>
<path d="M0 0 C0.66 0 1.32 0 2 0 C2 1.32 2 2.64 2 4 C-1.63 4 -5.26 4 -9 4 C-8.01 5.485 -8.01 5.485 -7 7 C-3.89505874 7.31845551 -1.98273923 6.99424641 1 6 C0 9 0 9 -2 10 C-7.28923988 10.45014808 -7.28923988 10.45014808 -9.875 8.8125 C-11 7 -11 7 -11 2 C-7.37 2 -3.74 2 0 2 C0 1.34 0 0.68 0 0 Z " fill="#393233" transform="translate(422,129)"/>
<path d="M0 0 C4.62 0 9.24 0 14 0 C14 0.66 14 1.32 14 2 C12.02 2 10.04 2 8 2 C8 7.28 8 12.56 8 18 C7.34 18 6.68 18 6 18 C6 12.72 6 7.44 6 2 C4.02 2 2.04 2 0 2 C0 1.34 0 0.68 0 0 Z " fill="#4C4747" transform="translate(359,121)"/>
<path d="M0 0 C3.4375 0.875 3.4375 0.875 4.875 2.9375 C5.1534375 3.8965625 5.1534375 3.8965625 5.4375 4.875 C4.4375 5.875 4.4375 5.875 2.15234375 5.97265625 C0.77755859 5.95525391 0.77755859 5.95525391 -0.625 5.9375 C-1.54410156 5.92847656 -2.46320313 5.91945312 -3.41015625 5.91015625 C-4.12042969 5.89855469 -4.83070313 5.88695312 -5.5625 5.875 C-5.8925 4.555 -6.2225 3.235 -6.5625 1.875 C-3.5625 -0.125 -3.5625 -0.125 0 0 Z " fill="#544E4E" transform="translate(464.5625,125.125)"/>
<path d="M0 0 C6.6 0 13.2 0 20 0 C20 2.64 20 5.28 20 8 C19.67 8 19.34 8 19 8 C19 6.02 19 4.04 19 2 C13.39 2 7.78 2 2 2 C2 3.98 2 5.96 2 8 C1.34 8 0.68 8 0 8 C0 5.36 0 2.72 0 0 Z " fill="#D1CDCD" transform="translate(443,107)"/>
<path d="M0 0 C2.64 0.33 5.28 0.66 8 1 C7.360625 1.66 6.72125 2.32 6.0625 3 C3.41087498 6.85690912 3.31332879 9.37840033 3 14 C2.01 14 1.02 14 0 14 C0 9.38 0 4.76 0 0 Z " fill="#7C7878" transform="translate(474,125)"/>
<path d="M0 0 C0.66 0 1.32 0 2 0 C2 5.28 2 10.56 2 16 C4.97 16 7.94 16 11 16 C11 16.66 11 17.32 11 18 C7.37 18 3.74 18 0 18 C0 12.06 0 6.12 0 0 Z " fill="#494343" transform="translate(270,121)"/>
<path d="M0 0 C0.66 0 1.32 0 2 0 C2 5.28 2 10.56 2 16 C0.68 15.34 -0.64 14.68 -2 14 C-2.3690205 4.58997722 -2.3690205 4.58997722 0 0 Z " fill="#F45138" transform="translate(92,106)"/>
<path d="M0 0 C0.99 0 1.98 0 3 0 C3 1.65 3 3.3 3 5 C3.66 5 4.32 5 5 5 C5 5.66 5 6.32 5 7 C4.01 7 3.02 7 2 7 C2 10.96 2 14.92 2 19 C1.34 19 0.68 19 0 19 C0 15.04 0 11.08 0 7 C-0.66 7 -1.32 7 -2 7 C-2 6.34 -2 5.68 -2 5 C-1.34 5 -0.68 5 0 5 C0 3.35 0 1.7 0 0 Z " fill="#373030" transform="translate(430,120)"/>
<path d="M0 0 C0.33 0 0.66 0 1 0 C1.05397335 2.4377963 1.09365616 4.87439685 1.125 7.3125 C1.15013672 8.34793945 1.15013672 8.34793945 1.17578125 9.40429688 C1.21217794 13.17135396 1.14378864 14.78431704 -1 18 C-2.9453125 18.29296875 -2.9453125 18.29296875 -5.125 18.1875 C-6.40375 18.125625 -7.6825 18.06375 -9 18 C-9.33 17.01 -9.66 16.02 -10 15 C-7.36 15 -4.72 15 -2 15 C-1.06051636 11.85126186 -0.92255192 9.08952193 -1 5.8125 C-1.037569 4.20877332 -1.04673183 2.60348584 -1 1 C-0.67 0.67 -0.34 0.34 0 0 Z " fill="#292422" transform="translate(404,126)"/>
<path d="M0 0 C0.928125 0.0825 1.85625 0.165 2.8125 0.25 C-0.8125 3.25 -0.8125 3.25 -4.1875 3.25 C-4.1875 3.91 -4.1875 4.57 -4.1875 5.25 C-3.5275 5.25 -2.8675 5.25 -2.1875 5.25 C-2.50460938 5.79140625 -2.82171875 6.3328125 -3.1484375 6.890625 C-4.37057974 9.6657149 -4.59693436 11.98208098 -4.8125 15 C-4.88726562 15.98484375 -4.96203125 16.9696875 -5.0390625 17.984375 C-5.11253906 19.10585937 -5.11253906 19.10585937 -5.1875 20.25 C-5.5175 20.25 -5.8475 20.25 -6.1875 20.25 C-6.26862454 17.66603321 -6.32804748 15.08462432 -6.375 12.5 C-6.40013672 11.77039063 -6.42527344 11.04078125 -6.45117188 10.2890625 C-6.495598 7.03114665 -6.40377723 4.66195663 -4.875 1.75 C-3.1875 0.25 -3.1875 0.25 0 0 Z " fill="#F57763" transform="translate(197.1875,100.75)"/>
<path d="M0 0 C1.21236328 0.02707031 1.21236328 0.02707031 2.44921875 0.0546875 C3.37154297 0.08949219 3.37154297 0.08949219 4.3125 0.125 C3.3225 0.62 3.3225 0.62 2.3125 1.125 C1.9825 2.115 1.6525 3.105 1.3125 4.125 C0.9825 3.795 0.6525 3.465 0.3125 3.125 C-1.35367115 3.08436168 -3.02138095 3.082279 -4.6875 3.125 C-5.0175 5.105 -5.3475 7.085 -5.6875 9.125 C-6.6775 8.465 -7.6675 7.805 -8.6875 7.125 C-8.375 4.75 -8.375 4.75 -7.6875 2.125 C-4.48369983 -0.01086678 -3.66810033 -0.10632175 0 0 Z " fill="#696464" transform="translate(311.6875,124.875)"/>
<path d="M0 0 C5.50538793 -0.36702586 5.50538793 -0.36702586 7.6809082 1.24731445 C9.31737393 3.42169674 9.35034179 4.53393588 9.29296875 7.23046875 C9.28330078 8.03291016 9.27363281 8.83535156 9.26367188 9.66210938 C9.23853516 10.49548828 9.21339844 11.32886719 9.1875 12.1875 C9.17396484 13.03248047 9.16042969 13.87746094 9.14648438 14.74804688 C9.11115799 16.83230384 9.05735139 18.91623277 9 21 C8.67 21 8.34 21 8 21 C8 15.72 8 10.44 8 5 C7.01 5.33 6.02 5.66 5 6 C4.67 5.01 4.34 4.02 4 3 C4.33 2.34 4.66 1.68 5 1 C3.02 1.33 1.04 1.66 -1 2 C-0.67 1.34 -0.34 0.68 0 0 Z " fill="#F87461" transform="translate(86,101)"/>
<path d="M0 0 C2.97 0 5.94 0 9 0 C9.33 1.32 9.66 2.64 10 4 C6.7 4 3.4 4 0 4 C0 2.68 0 1.36 0 0 Z " fill="#0C0302" transform="translate(474,84)"/>
<path d="M0 0 C1.98 0 3.96 0 6 0 C6.66 1.32 7.32 2.64 8 4 C7.01 4.495 7.01 4.495 6 5 C5.67 4.34 5.34 3.68 5 3 C3.68 4.32 2.36 5.64 1 7 C0.67 6.01 0.34 5.02 0 4 C-0.66 4 -1.32 4 -2 4 C-1.34 2.68 -0.68 1.36 0 0 Z " fill="#F36048" transform="translate(104,53)"/>
<path d="M0 0 C2 2 2 2 2.125 5.125 C2.08375 6.07375 2.0425 7.0225 2 8 C1.71125 7.38125 1.4225 6.7625 1.125 6.125 C0.06279958 3.86674235 0.06279958 3.86674235 -2 2 C-4.60280568 2.32041397 -4.60280568 2.32041397 -7 3 C-7.66 4.98 -8.32 6.96 -9 9 C-9.33 9 -9.66 9 -10 9 C-10.35807422 2.67402207 -10.35807422 2.67402207 -8.9375 0 C-5.80557344 -1.61647822 -3.32814714 -0.78665296 0 0 Z " fill="#3E3939" transform="translate(385,126)"/>
<path d="M0 0 C3.63 0 7.26 0 11 0 C10.67 1.65 10.34 3.3 10 5 C9.01 5 8.02 5 7 5 C7.33 4.67 7.66 4.34 8 4 C5.69 3.67 3.38 3.34 1 3 C0.67 2.01 0.34 1.02 0 0 Z " fill="#DAD8D6" transform="translate(288,133)"/>
<path d="M0 0 C2.31 0 4.62 0 7 0 C6.360625 0.474375 5.72125 0.94875 5.0625 1.4375 C2.15149728 5.05420035 2.19350218 8.47204894 2 13 C1.34 13 0.68 13 0 13 C0 8.71 0 4.42 0 0 Z " fill="#3B3636" transform="translate(322,126)"/>
<path d="M0 0 C3.3 0 6.6 0 10 0 C9.67 1.32 9.34 2.64 9 4 C9 3.34 9 2.68 9 2 C8.01 2.66 7.02 3.32 6 4 C3.3125 4.125 3.3125 4.125 1 4 C0.67 2.68 0.34 1.36 0 0 Z " fill="#DAD8D7" transform="translate(460,133)"/>
<path d="M0 0 C5.50538793 -0.36702586 5.50538793 -0.36702586 7.6809082 1.24731445 C9.31737393 3.42169674 9.35034179 4.53393588 9.29296875 7.23046875 C9.28330078 8.03291016 9.27363281 8.83535156 9.26367188 9.66210938 C9.23853516 10.49548828 9.21339844 11.32886719 9.1875 12.1875 C9.17396484 13.03248047 9.16042969 13.87746094 9.14648438 14.74804688 C9.11115799 16.83230384 9.05735139 18.91623277 9 21 C8.67 21 8.34 21 8 21 C8 15.39 8 9.78 8 4 C7.01 4 6.02 4 5 4 C5 3.01 5 2.02 5 1 C3.02 1.33 1.04 1.66 -1 2 C-0.67 1.34 -0.34 0.68 0 0 Z " fill="#F77A69" transform="translate(140,101)"/>
<path d="M0 0 C3.63 0 7.26 0 11 0 C7.67692308 3.93846154 7.67692308 3.93846154 4.25 4.25 C3.5075 4.1675 2.765 4.085 2 4 C1.34 2.68 0.68 1.36 0 0 Z " fill="#DCDAD8" transform="translate(413,133)"/>
<path d="M0 0 C2.64 0 5.28 0 8 0 C7.67 1.32 7.34 2.64 7 4 C1.25 4.125 1.25 4.125 -1 3 C-0.67 3.99 -0.34 4.98 0 6 C-0.66 6 -1.32 6 -2 6 C-2 4.68 -2 3.36 -2 2 C-1.34 2 -0.68 2 0 2 C0 1.34 0 0.68 0 0 Z " fill="#E0DDDD" transform="translate(395,138)"/>
<path d="M0 0 C0.5878125 0.7425 0.5878125 0.7425 1.1875 1.5 C2.93242941 3.22796125 2.93242941 3.22796125 5.5 3.25 C8.12717443 3.07997567 8.12717443 3.07997567 11 2 C10 5 10 5 8 6 C2.57692308 6.46153846 2.57692308 6.46153846 0.125 4.5 C-0.24625 4.005 -0.6175 3.51 -1 3 C-0.67 2.01 -0.34 1.02 0 0 Z " fill="#4D4847" transform="translate(412,133)"/>
<path d="M0 0 C1.98 0 3.96 0 6 0 C6.33 0.66 6.66 1.32 7 2 C6.01 2.33 5.02 2.66 4 3 C3.67 3.99 3.34 4.98 3 6 C2.01 5.67 1.02 5.34 0 5 C-0.99 5.495 -0.99 5.495 -2 6 C-1.34 4.02 -0.68 2.04 0 0 Z " fill="#F76552" transform="translate(176,83)"/>
<path d="M0 0 C0.66 0.99 1.32 1.98 2 3 C5.10494126 3.31845551 7.01726077 2.99424641 10 2 C10 2.99 10 3.98 10 5 C7.22899606 6.38550197 5.0665294 6.1877467 2 6 C1.01 5.34 0.02 4.68 -1 4 C-0.67 2.68 -0.34 1.36 0 0 Z " fill="#554F4F" transform="translate(459,133)"/>
<path d="M0 0 C0.99 0.33 1.98 0.66 3 1 C2.67 4.96 2.34 8.92 2 13 C1.34 13 0.68 13 0 13 C0 8.71 0 4.42 0 0 Z " fill="#332A2B" transform="translate(334,126)"/>
<path d="M0 0 C2.875 -0.1875 2.875 -0.1875 6 0 C6.66 0.99 7.32 1.98 8 3 C6.68 3 5.36 3 4 3 C3.34 4.32 2.68 5.64 2 7 C2 5.68 2 4.36 2 3 C0.68 3.33 -0.64 3.66 -2 4 C-1.34 2.68 -0.68 1.36 0 0 Z " fill="#F46D5A" transform="translate(50,101)"/>
<path d="M0 0 C1.4540625 0.0309375 1.4540625 0.0309375 2.9375 0.0625 C1.9475 0.7225 0.9575 1.3825 -0.0625 2.0625 C0.2675 3.3825 0.5975 4.7025 0.9375 6.0625 C-2.0325 5.5675 -2.0325 5.5675 -5.0625 5.0625 C-3.9375 0.08035714 -3.9375 0.08035714 0 0 Z " fill="#F5624F" transform="translate(161.0625,64.9375)"/>
<path d="M0 0 C1.65 0.33 3.3 0.66 5 1 C5.33 1.99 5.66 2.98 6 4 C3.36 4 0.72 4 -2 4 C-1.34 2.68 -0.68 1.36 0 0 Z " fill="#D4D1D0" transform="translate(462,127)"/>
<path d="M0 0 C1.65 0.33 3.3 0.66 5 1 C5.33 1.99 5.66 2.98 6 4 C3.36 4 0.72 4 -2 4 C-1.34 2.68 -0.68 1.36 0 0 Z " fill="#D4D1D0" transform="translate(415,127)"/>
<path d="M0 0 C1.65 0.33 3.3 0.66 5 1 C5.33 1.99 5.66 2.98 6 4 C3.36 4 0.72 4 -2 4 C-1.34 2.68 -0.68 1.36 0 0 Z " fill="#D6D3D2" transform="translate(290,127)"/>
<path d="M0 0 C2.31 0 4.62 0 7 0 C7.66 1.32 8.32 2.64 9 4 C7.02 4.33 5.04 4.66 3 5 C3 3.68 3 2.36 3 1 C2.01 0.67 1.02 0.34 0 0 Z " fill="#F86F5D" transform="translate(68,83)"/>
<path d="M0 0 C0.66 0 1.32 0 2 0 C1.34 3.63 0.68 7.26 0 11 C-0.66 11 -1.32 11 -2 11 C-2.25 3.375 -2.25 3.375 0 0 Z " fill="#C5C2C2" transform="translate(479,128)"/>
<path d="M0 0 C0.99 0 1.98 0 3 0 C3 1.65 3 3.3 3 5 C3.66 5.33 4.32 5.66 5 6 C2.69 6 0.38 6 -2 6 C-1.34 5.67 -0.68 5.34 0 5 C0 3.35 0 1.7 0 0 Z " fill="#716C6C" transform="translate(430,120)"/>
<path d="M0 0 C2.97 0 5.94 0 9 0 C9 0.99 9 1.98 9 3 C6.36 3 3.72 3 1 3 C0.67 2.01 0.34 1.02 0 0 Z " fill="#514D4C" transform="translate(394,141)"/>
<path d="M0 0 C0.66 0.33 1.32 0.66 2 1 C1.2884375 1.7734375 1.2884375 1.7734375 0.5625 2.5625 C-1.42809407 5.66782675 -1.65060818 8.36632504 -2 12 C-2.33 12 -2.66 12 -3 12 C-3.08131463 10.56344146 -3.13933559 9.1255517 -3.1875 7.6875 C-3.22230469 6.88699219 -3.25710938 6.08648437 -3.29296875 5.26171875 C-2.93801608 2.52148416 -2.10633718 1.70828921 0 0 Z " fill="#B9B5B5" transform="translate(327,127)"/>
<path d="M0 0 C0.125 2.875 0.125 2.875 0 6 C-0.66 6.66 -1.32 7.32 -2 8 C-2.99 7.67 -3.98 7.34 -5 7 C-4.39816251 4.97954558 -3.72693904 2.97888961 -3 1 C-1 0 -1 0 0 0 Z " fill="#6C6666" transform="translate(388,129)"/>
</svg>
